<svg width="200" height="200" viewBox="0 0 200 200" xmlns="http://www.w3.org/2000/svg">
  <!-- Blue F shape -->
  <g>
    <!-- Main F body -->
    <path d="M 40 40 
             L 40 160 
             Q 40 180 60 180 
             L 80 180 
             Q 100 180 100 160 
             L 100 120 
             L 120 120 
             Q 140 120 140 100 
             L 140 80 
             Q 140 60 120 60 
             L 100 60 
             L 100 40 
             Q 100 20 120 20 
             L 140 20 
             Q 160 20 160 40 
             L 160 60 
             Q 160 80 140 80 
             L 120 80 
             L 120 100 
             L 140 100 
             Q 160 100 160 80 
             L 160 40 
             Q 160 20 140 20 
             L 60 20 
             Q 40 20 40 40 Z" 
          fill="#4B8CE8" 
          opacity="0.9"/>
    
    <!-- F horizontal bars -->
    <rect x="40" y="40" width="80" height="25" fill="#2563EB" rx="5"/>
    <rect x="40" y="85" width="60" height="20" fill="#3B82F6" rx="5"/>
  </g>
  
  <!-- Green arrow -->
  <g transform="translate(10, 10)">
    <path d="M 60 140 
             Q 90 80 120 60 
             Q 140 50 160 50 
             L 150 30 
             Q 150 25 155 25 
             L 180 50 
             Q 185 55 180 60 
             L 155 85 
             Q 150 85 150 80 
             L 160 60 
             Q 130 70 100 100 
             Q 80 120 60 150" 
          stroke="#4ADE80" 
          stroke-width="8" 
          fill="none" 
          stroke-linecap="round"/>
    
    <!-- Arrow head -->
    <path d="M 145 35 L 175 50 L 155 75 L 160 55 Z" 
          fill="#4ADE80"/>
  </g>
</svg>